<?xml version="1.0" encoding="UTF-8"?>
<svg version="1.1" xmlns="http://www.w3.org/2000/svg" width="150" height="150">
<path d="M0 0 C49.5 0 99 0 150 0 C150 49.5 150 99 150 150 C100.5 150 51 150 0 150 C0 100.5 0 51 0 0 Z " fill="#242527" transform="translate(0,0)"/>
<path d="M0 0 C3.16634636 -0.11760715 6.33212074 -0.18771024 9.5 -0.25 C10.386875 -0.28351562 11.27375 -0.31703125 12.1875 -0.3515625 C19.36542866 -0.45712027 24.57918096 0.98862262 30.0234375 5.78125 C30.46945313 6.3484375 30.91546875 6.915625 31.375 7.5 C31.83648437 8.0671875 32.29796875 8.634375 32.7734375 9.21875 C36.15657098 14.13183557 36.78215362 18.11565824 36 24 C34.89687467 27.44846569 33.53292744 30.72199891 32 34 C32.99 34.99 33.98 35.98 35 37 C34.67 37.99 34.34 38.98 34 40 C33.443125 39.649375 32.88625 39.29875 32.3125 38.9375 C29.37428442 37.74633152 28.01568049 38.11736181 25 39 C24.175 39.350625 23.35 39.70125 22.5 40.0625 C19.82226817 41.06664944 17.83421974 41.16195541 15 41 C13.32497479 36.07961343 12.82480955 32.01575501 13.02734375 26.8203125 C13.21100989 24.97887441 13.21100989 24.97887441 12 24 C12 29.28 12 34.56 12 40 C7 40 7 40 5.33203125 38.48828125 C4.83058594 37.77027344 4.32914063 37.05226562 3.8125 36.3125 C3.22210938 35.49523437 2.63171875 34.67796875 2.0234375 33.8359375 C1.35570313 32.90007812 0.68796875 31.96421875 0 31 C-1.67061551 28.79937728 -3.36833155 26.62001179 -5.0625 24.4375 C-5.91616733 23.32613698 -6.76904847 22.21416957 -7.62109375 21.1015625 C-9.0663339 19.21729209 -10.51573111 17.33618767 -11.97265625 15.4609375 C-12.51792969 14.75195312 -13.06320313 14.04296875 -13.625 13.3125 C-14.09164062 12.71050781 -14.55828125 12.10851562 -15.0390625 11.48828125 C-16 10 -16 10 -16 8 C-16.66 8 -17.32 8 -18 8 C-18 18.56 -18 29.12 -18 40 C-19.32 40 -20.64 40 -22 40 C-22 27.13 -22 14.26 -22 1 C-17 1 -17 1 -15.296875 2.58203125 C-14.78640625 3.31808594 -14.2759375 4.05414063 -13.75 4.8125 C-13.1621875 5.62332031 -12.574375 6.43414062 -11.96875 7.26953125 C-11.3190625 8.17058594 -10.669375 9.07164063 -10 10 C-8.43337427 12.01311407 -6.84984312 14.01318183 -5.25 16 C-4.51265625 16.928125 -3.7753125 17.85625 -3.015625 18.8125 C-1.11317649 21.23082156 -1.11317649 21.23082156 2 22 C2 21.01 2 20.02 2 19 C2.66 19 3.32 19 4 19 C4.33 16.03 4.66 13.06 5 10 C2.66475218 12.25740623 0.81294927 14.2805761 -1 17 C-1.66 16.34 -2.32 15.68 -3 15 C-2.64512607 11.36254226 -1.7456308 7.84818438 -0.953125 4.28515625 C-0.77426758 3.48086182 -0.59541016 2.67656738 -0.41113281 1.84790039 C-0.27545898 1.23809326 -0.13978516 0.62828613 0 0 Z " fill="#2D2E30" transform="translate(68,48)"/>
<path d="M0 0 C0.66 0 1.32 0 2 0 C3.2890625 1.75 3.2890625 1.75 4.625 4 C5.07101563 4.7425 5.51703125 5.485 5.9765625 6.25 C6.31429687 6.8275 6.65203125 7.405 7 8 C6.34 8 5.68 8 5 8 C5.9351801 11.92775643 7.04885035 14.26706947 10 16.9375 C13.24693725 19.90927307 13.91509005 22.74381479 15 27 C15.99 27.33 16.98 27.66 18 28 C18 28.99 18 29.98 18 31 C19.32 31.33 20.64 31.66 22 32 C22.28875 33.03125 22.5775 34.0625 22.875 35.125 C23.82308798 38.45007997 24.88256594 41.72751453 26 45 C22.16275828 45.90413673 18.62497726 46.10576898 14.6875 46.0625 C13.08455078 46.04896484 13.08455078 46.04896484 11.44921875 46.03515625 C10.64097656 46.02355469 9.83273438 46.01195312 9 46 C9 45.01 9 44.02 9 43 C8.01 43 7.02 43 6 43 C6.66 43.33 7.32 43.66 8 44 C8 44.66 8 45.32 8 46 C6.58376784 46.05447047 5.16691809 46.09300508 3.75 46.125 C2.96109375 46.14820313 2.1721875 46.17140625 1.359375 46.1953125 C-1.20731941 45.9828378 -2.7916067 45.28654105 -5 44 C-5.66 44.66 -6.32 45.32 -7 46 C-7.99 46 -8.98 46 -10 46 C-10.33 45.34 -10.66 44.68 -11 44 C-11.495 44.495 -11.495 44.495 -12 45 C-13.66617115 45.04063832 -15.33388095 45.042721 -17 45 C-16.67 43.68 -16.34 42.36 -16 41 C-14.68 41 -13.36 41 -12 41 C-9.66508361 40.67794257 -7.33157492 40.34541851 -5 40 C-4.34 40 -3.68 40 -3 40 C-1.515 39.505 -1.515 39.505 0 39 C0.33 37.35 0.66 35.7 1 34 C-0.98 33.67 -2.96 33.34 -5 33 C-5 32.67 -5 32.34 -5 32 C-3.35 32 -1.7 32 0 32 C0 21.44 0 10.88 0 0 Z " fill="#2E2F31" transform="translate(50,56)"/>
<path d="M0 0 C5 0 5 0 6.5625 1.40625 C7.036875 2.0971875 7.51125 2.788125 8 3.5 C11.40783642 8.22432952 14.99743872 12.74541014 18.6875 17.25 C19.7959665 18.60905408 20.9040543 19.96841715 22.01171875 21.328125 C22.49084717 21.9149707 22.96997559 22.50181641 23.46362305 23.10644531 C25.32053423 25.3950522 27.15891435 27.69864294 29 30 C29.33 20.43 29.66 10.86 30 1 C31.32 1 32.64 1 34 1 C34 13.54 34 26.08 34 39 C29 39 29 39 27.33203125 37.48828125 C26.83058594 36.77027344 26.32914063 36.05226562 25.8125 35.3125 C25.22210938 34.49523437 24.63171875 33.67796875 24.0234375 32.8359375 C23.35570313 31.90007812 22.68796875 30.96421875 22 30 C20.32938449 27.79937728 18.63166845 25.62001179 16.9375 23.4375 C16.08383267 22.32613698 15.23095153 21.21416957 14.37890625 20.1015625 C12.9336661 18.21729209 11.48426889 16.33618767 10.02734375 14.4609375 C9.48207031 13.75195312 8.93679687 13.04296875 8.375 12.3125 C7.90835938 11.71050781 7.44171875 11.10851562 6.9609375 10.48828125 C6 9 6 9 6 7 C5.34 7 4.68 7 4 7 C4 17.56 4 28.12 4 39 C2.68 39 1.36 39 0 39 C0 26.13 0 13.26 0 0 Z " fill="#CCCDCF" transform="translate(46,49)"/>
<path d="M0 0 C8.04339128 0.80433913 12.60154165 3.05346537 17.703125 9.18359375 C21.18614975 14.06192661 21.78375752 18.10359167 21 24 C19.89687467 27.44846569 18.53292744 30.72199891 17 34 C17.99 34.99 18.98 35.98 20 37 C19.67 37.99 19.34 38.98 19 40 C18.443125 39.649375 17.88625 39.29875 17.3125 38.9375 C14.37428442 37.74633152 13.01568049 38.11736181 10 39 C9.175 39.350625 8.35 39.70125 7.5 40.0625 C4.82226817 41.06664944 2.83421974 41.16195541 0 41 C0 39.68 0 38.36 0 37 C1.11375 36.71125 2.2275 36.4225 3.375 36.125 C7.00291092 35.30758671 7.00291092 35.30758671 9 33 C7.02 31.35 5.04 29.7 3 28 C3.66 26.68 4.32 25.36 5 24 C6.46484375 25.26953125 7.9296875 26.5390625 9.39453125 27.80859375 C11.10712971 29.20871231 11.10712971 29.20871231 14 30 C15.2857031 24.11339242 16.64847161 17.48569952 13.9765625 11.8359375 C10.27086065 7.02466714 5.79049863 5.35111635 0 4 C0 2.68 0 1.36 0 0 Z " fill="#9E9FA1" transform="translate(83,48)"/>
<path d="M0 0 C3.96 0.33 7.92 0.66 12 1 C10.68 1.33 9.36 1.66 8 2 C8 11.9 8 21.8 8 32 C4.68908998 28.68908998 1.82336734 25.65992062 -1 22 C-0.01 22 0.98 22 2 22 C2 21.01 2 20.02 2 19 C2.66 19 3.32 19 4 19 C4.495 14.545 4.495 14.545 5 10 C2.66475218 12.25740623 0.81294927 14.2805761 -1 17 C-1.66 16.34 -2.32 15.68 -3 15 C-2.75 12.4375 -2.75 12.4375 -2 9 C-1.82855469 8.20980469 -1.65710938 7.41960938 -1.48046875 6.60546875 C-0.99796236 4.40121293 -0.50007642 2.20033627 0 0 Z " fill="#38393B" transform="translate(68,48)"/>
<path d="M0 0 C1.32 0 2.64 0 4 0 C4 12.54 4 25.08 4 38 C-1 38 -1 38 -2.984375 36.1015625 C-3.56703125 35.28429687 -4.1496875 34.46703125 -4.75 33.625 C-5.34296875 32.81289062 -5.9359375 32.00078125 -6.546875 31.1640625 C-8 29 -8 29 -9 27 C-8.01 27 -7.02 27 -6 27 C-5.34 26.34 -4.68 25.68 -4 25 C-3.01 26.32 -2.02 27.64 -1 29 C-0.67 19.43 -0.34 9.86 0 0 Z " fill="#929395" transform="translate(76,50)"/>
<path d="M0 0 C3.57305217 1.46708103 5.34284847 3.33727538 7.6875 6.375 C8.37714844 7.25800781 9.06679687 8.14101562 9.77734375 9.05078125 C11.3353982 11.118147 12.86776417 13.19214272 14.37890625 15.29296875 C14.77440674 15.83711426 15.16990723 16.38125977 15.57739258 16.94189453 C16.70249649 18.49684763 17.81253784 20.06266584 18.921875 21.62890625 C21.02397694 24.02735715 21.88559414 24.71240847 25 25 C25 25.66 25 26.32 25 27 C24.34 27 23.68 27 23 27 C23 27.66 23 28.32 23 29 C22.01 29 21.02 29 20 29 C19.566875 28.38125 19.13375 27.7625 18.6875 27.125 C16.47853837 24.34334461 14.3690902 23.89842405 11 23 C11.33 22.01 11.66 21.02 12 20 C11.38125 19.443125 10.7625 18.88625 10.125 18.3125 C8 16 8 16 7.125 13.625 C5.96537794 10.9192152 5.00503869 9.94092311 2.875 8 C0.04553378 5.34909233 0.04553378 5.34909233 -0.375 2.125 C-0.25125 1.42375 -0.1275 0.7225 0 0 Z " fill="#1D1E20" transform="translate(55,64)"/>
<path d="M0 0 C8.16211519 0.81621152 12.67689521 3.12534455 17.80078125 9.37890625 C20.40910485 12.90481601 20.29922845 15.66118753 20 20 C18.484375 22.2265625 18.484375 22.2265625 17 24 C16.92523438 23.35933594 16.85046875 22.71867187 16.7734375 22.05859375 C15.80242184 15.67083384 14.29232675 10.99420887 9 7 C6.06324926 5.65858041 3.1408582 4.73286691 0 4 C0 2.68 0 1.36 0 0 Z " fill="#D1D2D4" transform="translate(83,48)"/>
<path d="M0 0 C1.65 0 3.3 0 5 0 C3.68 0.33 2.36 0.66 1 1 C1 8.26 1 15.52 1 23 C1.99 23 2.98 23 4 23 C4 28.28 4 33.56 4 39 C2.68 39 1.36 39 0 39 C0 26.13 0 13.26 0 0 Z " fill="#98999B" transform="translate(46,49)"/>
<path d="M0 0 C2.63804589 -0.39397335 2.63804589 -0.39397335 5 -1 C5 0.65 5 2.3 5 4 C4.67 3.01 4.34 2.02 4 1 C3.01 1 2.02 1 1 1 C1.66 1.33 2.32 1.66 3 2 C3 2.66 3 3.32 3 4 C1.58376784 4.05447047 0.16691809 4.09300508 -1.25 4.125 C-2.03890625 4.14820312 -2.8278125 4.17140625 -3.640625 4.1953125 C-6.20731941 3.9828378 -7.7916067 3.28654105 -10 2 C-10.66 2.66 -11.32 3.32 -12 4 C-12.99 4 -13.98 4 -15 4 C-15.33 3.34 -15.66 2.68 -16 2 C-16.33 2.33 -16.66 2.66 -17 3 C-18.66617115 3.04063832 -20.33388095 3.042721 -22 3 C-21.67 1.68 -21.34 0.36 -21 -1 C-19.68 -1 -18.36 -1 -17 -1 C-16.278125 -1.185625 -15.55625 -1.37125 -14.8125 -1.5625 C-9.80146718 -2.34199399 -4.78950389 -1.5965013 0 0 Z " fill="#454648" transform="translate(55,98)"/>
<path d="M0 0 C1.32 0 2.64 0 4 0 C4.0270817 2.72923388 4.04687847 5.45819637 4.0625 8.1875 C4.07087891 8.95642578 4.07925781 9.72535156 4.08789062 10.51757812 C4.10491934 14.48526789 3.98604115 18.12571234 3 22 C2.01 22.33 1.02 22.66 0 23 C0 15.41 0 7.82 0 0 Z " fill="#C2C3C5" transform="translate(76,50)"/>
<path d="M0 0 C5.22425989 0.6586718 7.31635174 2.65313271 10.6171875 6.58984375 C12.93109589 10.62284227 12.58080877 14.50103682 12 19 C8.79121099 15.09670598 8.05723542 11.87954811 7 7 C6.01 7.33 5.02 7.66 4 8 C3.34 7.34 2.68 6.68 2 6 C2 5.01 2 4.02 2 3 C1.34 3 0.68 3 0 3 C0 2.01 0 1.02 0 0 Z " fill="#1C1D1F" transform="translate(87,53)"/>
<path d="M0 0 C0.969375 0.185625 1.93875 0.37125 2.9375 0.5625 C3.948125 0.706875 4.95875 0.85125 6 1 C6.33 0.67 6.66 0.34 7 0 C8.85772162 0.08984301 10.71247985 0.24611861 12.5625 0.4375 C14.08037109 0.59025391 14.08037109 0.59025391 15.62890625 0.74609375 C16.80259766 0.87177734 16.80259766 0.87177734 18 1 C18 2.32 18 3.64 18 5 C11.73 5 5.46 5 -1 5 C-0.67 3.35 -0.34 1.7 0 0 Z " fill="#444547" transform="translate(84,97)"/>
<path d="M0 0 C0.33 0 0.66 0 1 0 C1.45164525 7.11341265 0.32797915 11.71546794 -3 18 C-5.475 17.01 -5.475 17.01 -8 16 C-7.34 15.67 -6.68 15.34 -6 15 C-5.30772968 12.19019327 -5.30772968 12.19019327 -4.875 8.9375 C-4.70742187 7.83277344 -4.53984375 6.72804688 -4.3671875 5.58984375 C-4.24601562 4.73519531 -4.12484375 3.88054687 -4 3 C-3.01 3.33 -2.02 3.66 -1 4 C-0.67 2.68 -0.34 1.36 0 0 Z " fill="#949597" transform="translate(103,63)"/>
<path d="M0 0 C0.33 0.66 0.66 1.32 1 2 C3.31 2 5.62 2 8 2 C7.01 2.495 7.01 2.495 6 3 C6 3.66 6 4.32 6 5 C3.47524538 6.26237731 1.68799534 6.09856404 -1.125 6.0625 C-2.03507812 6.05347656 -2.94515625 6.04445313 -3.8828125 6.03515625 C-4.58148438 6.02355469 -5.28015625 6.01195313 -6 6 C-6 4.68 -6 3.36 -6 2 C-4.02 1.34 -2.04 0.68 0 0 Z " fill="#404143" transform="translate(109,96)"/>
<path d="M0 0 C-0.49730652 4.97306516 -1.55302334 8.63799813 -4 13 C-4.99 12.34 -5.98 11.68 -7 11 C-6.71612495 6.93112431 -6.22537285 5.25917878 -3.5 2.125 C-1 0 -1 0 0 0 Z " fill="#D4D5D7" transform="translate(72,52)"/>
<path d="M0 0 C0.33 0.99 0.66 1.98 1 3 C1.66 3.33 2.32 3.66 3 4 C-4.28571429 7.42857143 -4.28571429 7.42857143 -9 7 C-9 5.68 -9 4.36 -9 3 C-7.88625 2.690625 -6.7725 2.38125 -5.625 2.0625 C-2.2054845 1.17673517 -2.2054845 1.17673517 0 0 Z " fill="#858688" transform="translate(92,82)"/>
<path d="M0 0 C0.66 0.33 1.32 0.66 2 1 C2 5.62 2 10.24 2 15 C1.01 15 0.02 15 -1 15 C-1.02703381 13.06257659 -1.04641125 11.12504521 -1.0625 9.1875 C-1.07410156 8.10855469 -1.08570313 7.02960938 -1.09765625 5.91796875 C-1 3 -1 3 0 0 Z " fill="#BEBFC1" transform="translate(48,57)"/>
<path d="M0 0 C4.05606165 0.46800711 7.46588679 0.87953208 11 3 C11 3.66 11 4.32 11 5 C7.37 4.67 3.74 4.34 0 4 C0 2.68 0 1.36 0 0 Z " fill="#DADBDC" transform="translate(83,48)"/>
<path d="M0 0 C3.14027363 0.33645789 4.05098295 1.05236086 6.3125 3.375 C6.869375 4.24125 7.42625 5.1075 8 6 C7.67 6.99 7.34 7.98 7 9 C5.1875 8.9375 5.1875 8.9375 3 8 C0 2 0 2 0 0 Z " fill="#D0D1D3" transform="translate(54,57)"/>
<path d="M0 0 C0.99 0 1.98 0 3 0 C3 3.3 3 6.6 3 10 C2.34 10 1.68 10 1 10 C0.67 11.32 0.34 12.64 0 14 C0 9.38 0 4.76 0 0 Z " fill="#E7E8EA" transform="translate(76,50)"/>
<path d="M0 0 C2.35119399 3.52679099 2.21443452 5.02879485 2.125 9.1875 C2.10695313 10.27417969 2.08890625 11.36085938 2.0703125 12.48046875 C2.03550781 13.72763672 2.03550781 13.72763672 2 15 C0 14 0 14 -1 11 C-1.13973952 7.15716316 -1.17851619 3.6828631 0 0 Z " fill="#A8A9AB" transform="translate(77,69)"/>
<path d="M0 0 C1.875 0.3125 1.875 0.3125 4 1 C4.66 1.99 5.32 2.98 6 4 C2.77208445 6.1519437 1.71599191 6.20086443 -2 6 C-1.34 4.02 -0.68 2.04 0 0 Z " fill="#1F2022" transform="translate(87,78)"/>
<path d="M0 0 C7.00217628 4.35690968 7.00217628 4.35690968 9 8 C8.67 8.99 8.34 9.98 8 11 C2.25 6.375 2.25 6.375 0 3 C0 2.01 0 1.02 0 0 Z " fill="#141517" transform="translate(61,72)"/>
<path d="M0 0 C6.75 0.75 6.75 0.75 9 3 C8.67 3.99 8.34 4.98 8 6 C6.68 6 5.36 6 4 6 C1.75 3 1.75 3 0 0 Z " fill="#393A3C" transform="translate(56,56)"/>
<path d="M0 0 C0 0.33 0 0.66 0 1 C-1.134375 1.309375 -2.26875 1.61875 -3.4375 1.9375 C-6.78775099 2.62924531 -6.78775099 2.62924531 -8 4 C-9.66617115 4.04063832 -11.33388095 4.042721 -13 4 C-12.67 2.68 -12.34 1.36 -12 0 C-10.68 0 -9.36 0 -8 0 C-6.7315625 -0.2784375 -6.7315625 -0.2784375 -5.4375 -0.5625 C-3 -1 -3 -1 0 0 Z " fill="#3F4042" transform="translate(46,97)"/>
<path d="M0 0 C2 2 2 2 2.3125 5.375 C1.99258956 9.0859611 1.5224581 10.37243948 -1 13 C-2.42857143 4.57142857 -2.42857143 4.57142857 0 0 Z " fill="#C4C5C7" transform="translate(101,59)"/>
<path d="M0 0 C4.59817352 1.45205479 4.59817352 1.45205479 6.375 3.875 C7.10378932 6.35288368 6.70324816 7.56411144 6 10 C4.99106869 8.90398831 3.99311775 7.79786082 3 6.6875 C2.1646875 5.76517578 2.1646875 5.76517578 1.3125 4.82421875 C0 3 0 3 0 0 Z " fill="#343537" transform="translate(95,49)"/>
<path d="M0 0 C2.31 0 4.62 0 7 0 C7 1.32 7 2.64 7 4 C5.02 4.33 3.04 4.66 1 5 C0.67 3.35 0.34 1.7 0 0 Z " fill="#161719" transform="translate(45,89)"/>
<path d="M0 0 C0.33 0 0.66 0 1 0 C1.05447047 1.41623216 1.09300508 2.83308191 1.125 4.25 C1.14820312 5.03890625 1.17140625 5.8278125 1.1953125 6.640625 C0.9828378 9.20731941 0.28654105 10.7916067 -1 13 C-2.51297182 10.59704475 -3.03665969 9.36659693 -2.75 6.5 C-2.045492 4.15164001 -1.18844709 2.13920477 0 0 Z " fill="#A1A2A4" transform="translate(103,63)"/>
<path d="M0 0 C1.5625 1.1875 1.5625 1.1875 3 3 C2.6875 5.6875 2.6875 5.6875 2 8 C0.02 6.35 -1.96 4.7 -4 3 C-3.01 2.67 -2.02 2.34 -1 2 C-0.67 1.34 -0.34 0.68 0 0 Z " fill="#999A9C" transform="translate(71,75)"/>
<path d="M0 0 C1.65 1.65 3.3 3.3 5 5 C4.34 6.32 3.68 7.64 3 9 C2.71125 8.360625 2.4225 7.72125 2.125 7.0625 C1.17176549 4.84793921 1.17176549 4.84793921 -1 4 C-0.67 2.68 -0.34 1.36 0 0 Z " fill="#E2E3E5" transform="translate(51,51)"/>
<path d="M0 0 C1.875 1.5625 1.875 1.5625 3 3 C1.02 3 -0.96 3 -3 3 C-3.33 3.66 -3.66 4.32 -4 5 C-4.66 4.67 -5.32 4.34 -6 4 C-6 3.01 -6 2.02 -6 1 C-6.99 0.67 -7.98 0.34 -9 0 C-5.45026831 -1.1832439 -3.60040463 -0.90010116 0 0 Z " fill="#2E2F31" transform="translate(106,97)"/>
<path d="M0 0 C1.98 0.495 1.98 0.495 4 1 C4.33 2.32 4.66 3.64 5 5 C4.01 5.495 4.01 5.495 3 6 C1.68 5.01 0.36 4.02 -1 3 C-0.67 2.01 -0.34 1.02 0 0 Z " fill="#A8A9AB" transform="translate(66,72)"/>
<path d="M0 0 C0.66 0 1.32 0 2 0 C2 0.66 2 1.32 2 2 C2.99 2 3.98 2 5 2 C5 2.99 5 3.98 5 5 C3.02 5 1.04 5 -1 5 C-0.67 3.35 -0.34 1.7 0 0 Z " fill="#3C3D3F" transform="translate(84,97)"/>
<path d="M0 0 C2.97 0.495 2.97 0.495 6 1 C6 1.66 6 2.32 6 3 C5.34 3 4.68 3 4 3 C4 3.66 4 4.32 4 5 C3.01 5 2.02 5 1 5 C0.67 3.35 0.34 1.7 0 0 Z " fill="#111214" transform="translate(74,88)"/>
<path d="M0 0 C0.99 0 1.98 0 3 0 C3 2.64 3 5.28 3 8 C2.01 7.67 1.02 7.34 0 7 C0 4.69 0 2.38 0 0 Z " fill="#ABACAE" transform="translate(47,72)"/>
<path d="M0 0 C0.66 0.33 1.32 0.66 2 1 C2 4.3 2 7.6 2 11 C-1 7 -1 7 -0.6875 3.25 C-0.3471875 1.64125 -0.3471875 1.64125 0 0 Z " fill="#D5D6D8" transform="translate(48,57)"/>
<path d="M0 0 C2.64 0.99 5.28 1.98 8 3 C7.67 3.99 7.34 4.98 7 6 C6.401875 5.690625 5.80375 5.38125 5.1875 5.0625 C2.91043228 3.89790296 2.91043228 3.89790296 0 3 C0 2.01 0 1.02 0 0 Z " fill="#8B8C8E" transform="translate(95,82)"/>
<path d="M0 0 C1.65 0 3.3 0 5 0 C5 1.65 5 3.3 5 5 C4.34 4.01 3.68 3.02 3 2 C1.68 2.99 0.36 3.98 -1 5 C-0.67 3.35 -0.34 1.7 0 0 Z " fill="#4D4E50" transform="translate(68,51)"/>
<path d="M0 0 C0.99 0.66 1.98 1.32 3 2 C2.67 2.99 2.34 3.98 2 5 C0.0625 4.6875 0.0625 4.6875 -2 4 C-2.33 3.01 -2.66 2.02 -3 1 C-2.01 0.67 -1.02 0.34 0 0 Z " fill="#C3C4C6" transform="translate(59,61)"/>
<path d="M0 0 C1.32 1.32 2.64 2.64 4 4 C3.01 4.33 2.02 4.66 1 5 C0.67 5.66 0.34 6.32 0 7 C-1.125 2.25 -1.125 2.25 0 0 Z " fill="#27282A" transform="translate(53,59)"/>
</svg>
